<?xml version="1.0" encoding="utf-8"?>
<!-- Generator: Adobe Illustrator 23.0.2, SVG Export Plug-In . SVG Version: 6.00 Build 0)  -->
<svg version="1.1" id="Layer_1" xmlns="http://www.w3.org/2000/svg" xmlns:xlink="http://www.w3.org/1999/xlink" x="0px" y="0px"
	 viewBox="0 0 1024 768" style="enable-background:new 0 0 1024 768;" xml:space="preserve">
<style type="text/css">
	.st0{enable-background:new    ;}
	.st1{clip-path:url(#SVGID_2_);}
	.st2{fill:#2E3192;}
	.st3{clip-path:url(#SVGID_4_);}
	.st4{clip-path:url(#SVGID_6_);fill:#2E3192;}
	.st5{clip-path:url(#SVGID_8_);}
	.st6{clip-path:url(#SVGID_10_);}
	.st7{clip-path:url(#SVGID_12_);}
	.st8{clip-path:url(#SVGID_14_);}
	.st9{clip-path:url(#SVGID_16_);fill:#009245;}
	.st10{fill:#009245;}
	.st11{font-family:'CooperBlack';}
	.st12{font-size:36px;}
	.st13{font-size:18px;}
</style>
<g>
	<g>
		<g class="st0">
			<defs>
				<polygon id="SVGID_1_" class="st0" points="117.5,218.9 126.1,109.2 177.8,83 169.2,192.6 				"/>
			</defs>
			<clipPath id="SVGID_2_">
				<use xlink:href="#SVGID_1_"  style="overflow:visible;"/>
			</clipPath>
			<g class="st1">
				<g>
					<g>
						<g>
							<path class="st2" d="M163,163.4c1.1,8.4,3,15.4,5.7,21.1l-1.9,5.8l-47.8,25.8l0.7,1.7l47.6-25.7l2.7-8.3l-0.3-0.5
								c-2.7-5.9-4.5-12.4-5.3-19.6L163,163.4"/>
							<path class="st2" d="M171.4,86.2l-45.3,24.4l0.2,0.7c1.9,7.3,3.3,13.6,4.3,18.9l0.2,1.2c1.1-4.6,2.3-8.5,3.8-11.7
								c1.8-4,3.8-7.1,6.1-9.2c2.2-2.1,6.2-4.7,12-7.8c0.4-0.2,0.9-0.5,1.3-0.7c1.5-0.7,2.9-1.4,4.4-2l-2,5.4l-0.6,0.3
								c-1,0.5-2.1,1-3.3,1.6c-1,0.5-2,1-3.1,1.6c-3.6,2-6.3,3.7-7.9,5.2c-1.6,1.5-3.1,3.6-4.4,6.2c-2,3.9-3.4,8.2-4.3,13l0.7,1.3
								c1.3-7,3.1-12,5.1-15.1c2.1-3.1,5.6-6,10.7-8.8l5.3-2.7l0.8-0.4L118,212.5l47.4-25.6c-2.2-4.7-4-12.2-5.4-22.6
								c-1.2,4.4-2.6,8.7-4.2,12.6c-1.3,3.2-3,6.2-5.1,8.9c-2.2,2.7-4.4,4.7-6.7,6l-1.7,0.9l-3.3,1.9l-4.2,2.2l39-108.5l-0.6-1.5
								l-39.8,110.8l-2.6,1.4L171.4,86.2"/>
						</g>
					</g>
				</g>
			</g>
		</g>
	</g>
</g>
<g>
	<g>
		<g class="st0">
			<defs>
				<polygon id="SVGID_3_" class="st0" points="166.7,155 157.7,47.6 259.4,90.3 268.4,197.8 				"/>
			</defs>
			<clipPath id="SVGID_4_">
				<use xlink:href="#SVGID_3_"  style="overflow:visible;"/>
			</clipPath>
			<g class="st3">
				<g>
					<g>
						<g>
							<g>
								<defs>
									<polyline id="SVGID_5_" points="175.3,158.6 159,63.7 250.7,86.7 267,181.6 175.3,158.6 									"/>
								</defs>
								<clipPath id="SVGID_6_">
									<use xlink:href="#SVGID_5_"  style="overflow:visible;"/>
								</clipPath>
								<path class="st4" d="M244.8,90.7l-0.3,0.4l-4.1,7.2c-2.2,3.9-3.9,7.1-5,9.5l-0.2,0.5l2,1.2l0.3-0.4c0.4-0.6,1.9-3.7,4.7-9.1
									c1.1-2.4,2.6-4.8,4.3-7.2l0.6-0.8L244.8,90.7"/>
								<path class="st4" d="M248.1,130.5l0.1,0.4c6.6,6.8,10.5,13.6,11.5,20.4c1.2,8-1.5,13.8-8.2,17.3c-6.2,3.3-14.3,3.7-24.1,1.2
									c-0.7-0.2-1.4-0.4-2.2-0.6c-4.2-1.2-8.2-2.6-12.1-4.3c-1.3-0.5-2.5-1.1-3.8-1.7l-12.8-6c-1.3-0.6-2.5-1.1-3.7-1.6
									c-2.8-1.2-5.3-2.1-7.6-2.7c-0.3-0.1-0.6-0.2-0.9-0.2c-2.6-0.7-5.1-0.9-7.5-0.6l1.3,2.2c2.2-0.3,4.6,0,7.3,0.6
									c0.3,0.1,0.7,0.2,1,0.3c2.5,0.7,5,1.6,7.3,2.6c0.9,0.4,1.7,0.7,2.5,1.1l13.3,6.3c1.3,0.6,2.6,1.2,4,1.8
									c3.7,1.6,7.8,3,12,4.2c0.8,0.2,1.6,0.4,2.3,0.6c10.4,2.6,18.8,2.2,25.4-1.2c7.1-3.6,10-9.7,8.6-18.2c0,0,0-0.1,0-0.1
									l-0.1-0.8C260.5,144,255.9,137,248.1,130.5"/>
								<path class="st4" d="M193.5,133.3l-2.1-0.3c3.5,9.7,10.5,17.2,20.9,22.4l-0.1-0.5C202.9,149.1,196.7,141.9,193.5,133.3"/>
								<path class="st4" d="M209.7,85.5c-1.6-0.7-3.3-1.3-5-1.8c-0.4-0.1-0.8-0.2-1.1-0.3c-4.3-1.1-7.7-1-10.2,0.2
									c-2.7,1.3-3.8,3.7-3.2,7.2c0.8,5,4.9,9.8,12.4,14.5l0.3-0.4l-0.7-0.5c-6-5-9.2-9.2-9.7-12.5c-0.5-3,0.5-5.1,2.9-6.3
									c2.2-1.1,5.2-1.2,8.9-0.3c0.3,0.1,0.6,0.2,0.9,0.2c1.3,0.4,2.5,0.8,3.8,1.3c5.5,2.3,11,6.3,16.5,11.9l0.5-0.1
									c-2.1-3.4-5-6.4-8.7-9C214.9,88,212.4,86.6,209.7,85.5"/>
								<path class="st4" d="M240.6,87.4c-2.7,0.6-5.3,0.6-7.8-0.1c-0.2,0-0.3-0.1-0.5-0.1c-0.9-0.2-2-0.6-3.3-1.2
									c-1.6-0.7-3.5-1.5-5.7-2.6c-3.6-1.8-7-3.3-10.2-4.7c-4.5-1.9-8.6-3.4-12.3-4.4c-0.7-0.2-1.3-0.4-2-0.5l-0.9-0.2
									c-8.5-2-15.2-1.9-20.1,0.5c-5.4,2.6-7.6,7.5-6.5,14.5c1,6.8,4.2,12.8,9.3,17.9c5.2,5.1,13,10,23.4,14.5
									c13.5,5.9,22.6,10.7,27.3,14.4c6.5,5.2,10.1,10.5,11,15.9c0.7,4.7-0.8,7.8-4.7,9.3c-3.5,1.4-8.4,1.3-14.7-0.3
									c-0.6-0.2-1.3-0.3-1.9-0.5c-2.8-0.8-5.4-1.7-7.9-2.8c-5.8-2.4-10.8-5.6-15.2-9.4c-6.3-5.5-10.5-11.9-12.7-19.2l-1.5-0.8
									c-1.5,6.8-5,13.3-10.4,19.8l0.8,1.1c3-0.7,6.1-0.6,9.1,0.1c0.2,0.1,0.4,0.1,0.7,0.2c1.6,0.5,3.5,1.1,5.6,2.1
									c1.2,0.5,2.6,1.1,4,1.8l9.8,4.6c2.7,1.3,5.2,2.4,7.7,3.5c4.8,2,9.2,3.6,13.3,4.8c0.7,0.2,1.4,0.4,2,0.5
									c8.9,2.2,16.1,1.9,21.5-0.9c5.9-3.1,8.3-8.2,7.1-15.5c-2-13.1-13.1-24.3-33.1-33.8l-14.1-6.6c-14.1-6.6-21.7-13.7-22.8-21.1
									c-0.6-4,0.8-6.8,4.2-8.3c3.1-1.4,7.3-1.5,12.5-0.2c0.4,0.1,0.9,0.2,1.3,0.4c1.5,0.4,3,0.9,4.4,1.6c4.6,1.9,9,4.8,13.2,8.6
									c2.2,2,3.8,3.9,5.1,5.7c1.2,1.8,2.9,5,5,9.4c0.2,0.3,0.4,0.7,0.7,1.3l0.3-0.3c0.8-1.2,2.4-4.7,4.7-10.4
									c1.2-2.9,2.9-5.5,5.2-7.8L240.6,87.4"/>
								<path class="st4" d="M180,108.8c1.2,3,3.9,5.9,8.1,8.7c4.2,2.8,12.4,6.9,24.4,12.5c8.3,3.8,13.9,6.7,16.9,8.6
									s5.9,4.3,8.7,7.3l0.5-0.1c-1.7-3-4.1-5.6-7.2-7.8c-3.1-2.1-9.3-5.4-18.4-9.7l-13.4-6.4c-8.9-4.2-14.4-7.9-16.6-11L180,108.8
									"/>
							</g>
						</g>
					</g>
				</g>
			</g>
		</g>
	</g>
</g>
<g>
	<g>
		<g class="st0">
			<defs>
				<polygon id="SVGID_7_" class="st0" points="137,214.3 123.8,95.8 214.3,98.6 227.5,217 				"/>
			</defs>
			<clipPath id="SVGID_8_">
				<use xlink:href="#SVGID_7_"  style="overflow:visible;"/>
			</clipPath>
			<g class="st5">
				<g>
					<g>
						<g>
							<g>
								<defs>
									<polyline id="SVGID_9_" points="154.7,214.8 124.2,99.4 196.7,98 227.1,213.4 154.7,214.8 									"/>
								</defs>
								<clipPath id="SVGID_10_">
									<use xlink:href="#SVGID_9_"  style="overflow:visible;"/>
								</clipPath>
								<g class="st6">
									<defs>
										<polyline id="SVGID_11_" points="157.1,212.4 124.2,99.4 194.3,100.4 227.1,213.4 157.1,212.4 										"/>
									</defs>
									<clipPath id="SVGID_12_">
										<use xlink:href="#SVGID_11_"  style="overflow:visible;"/>
									</clipPath>
									<g class="st7">
										<defs>
											<polyline id="SVGID_13_" points="159.7,212.4 125.5,103.7 191.6,100.4 225.9,209.1 159.7,212.4 											"/>
										</defs>
										<clipPath id="SVGID_14_">
											<use xlink:href="#SVGID_13_"  style="overflow:visible;"/>
										</clipPath>
										<g class="st8">
											<defs>
												<polyline id="SVGID_15_" points="165.8,184 125.5,103.7 185.6,128.8 225.9,209.1 165.8,184 												"/>
											</defs>
											<clipPath id="SVGID_16_">
												<use xlink:href="#SVGID_15_"  style="overflow:visible;"/>
											</clipPath>
											<path class="st9" d="M179,127c-0.5,1.3-1.3,2.2-2.5,2.7c-0.9,0.4-2.1,0.7-3.7,0.7c-0.1,0-0.3,0-0.4,0c-0.3,0-0.6,0-0.9,0
												c-0.4,0-0.7,0-1.1,0c-0.3,0-0.7,0-1,0c-3.2,0.2-5.9,0.7-8.1,1.7c-5.5,2.5-8.5,7.3-9,14.3c-0.5,5.9,0.8,12.2,4,18.8
												l0.1,0.2l0.4,0.7c0.5,0.9,1,1.8,1.5,2.8c5.1,8.7,10.9,14.7,17.6,18.3c0.8,0.5,1.7,0.8,2.5,1.2c2.7,1.1,5.4,1.7,8,1.8
												c0.1,0,0.2,0,0.4,0c0.2,0,0.5,0,0.7,0c0.2,0,0.3,0,0.5,0c2.4-0.1,4.8-0.7,7.1-1.7c6.9-3,9.5-8.1,8-15.2
												c-0.7-3.4-1.9-6.4-3.5-9.1c-0.7-1.2-1.3-1.9-2-2.1c-0.2-0.1-0.3-0.1-0.5-0.1l-0.1,0c-0.2,0-0.3,0-0.4,0.1
												c-0.7,0.3-0.7,1.1-0.1,2.3c2.5,5.1,3.6,9.3,3.2,12.8c-0.4,3.5-2.2,6-5.5,7.4c-1.2,0.5-2.5,0.8-3.8,0.9
												c-0.1,0-0.2,0-0.4,0c-0.1,0-0.2,0-0.4,0c-0.1,0-0.2,0-0.2,0c-1.5,0-3.1-0.4-4.8-1.1c-1.4-0.6-2.7-1.3-4.1-2.3
												c-5-3.5-9.8-9.2-14.4-17.1c-5.4-9.2-7.9-16.3-7.7-21.2c0.2-4,1.7-6.6,4.7-8c1.1-0.5,2.2-0.8,3.4-0.8c0.1,0,0.2,0,0.3,0
												c0.1,0,0.2,0,0.3,0c0,0,0.1,0,0.1,0c1.4,0,2.9,0.4,4.4,1c0.2,0.1,0.5,0.2,0.7,0.3c3.4,1.6,6.6,4.4,9.7,8.4l0.6,0.1
												l-0.3-1.1c-1.1-5.1-1.9-10.3-2.5-15.7l-0.1-1L179,127"/>
											<path class="st9" d="M182.3,127.7l0.1,0.9l0.8,7.3c0.3,2.3,0.7,5.2,1.3,8.7l0.2,1.2l1.2,0.1c-1.1-5-1.9-10.6-2.5-17
												l-0.1-1L182.3,127.7"/>
											<path class="st9" d="M201.2,162.5l0.5,1c1.9,3.7,3.2,6.7,3.8,9.2c0.6,2.5,0.7,4.9,0.4,7.3c-0.8,4.9-3.5,8.3-8.2,10.4
												c-2.4,1.1-4.9,1.6-7.4,1.8c-0.2,0-0.3,0-0.5,0c-0.2,0-0.5,0-0.7,0c-0.1,0-0.2,0-0.4,0c-1.4,0-2.8-0.2-4.1-0.5l0.2,0.3
												l0,0c2.1,0.6,4.1,0.9,5.9,0.9c0.1,0,0.2,0,0.4,0c0.2,0,0.4,0,0.6,0c0.2,0,0.4,0,0.6,0c2.2-0.1,4.2-0.6,6.1-1.4
												c5.2-2.3,8.1-5.9,8.8-10.8c0.6-4.3-0.5-9.4-3.3-15.3l-1.4-2.8L201.2,162.5"/>
											<path class="st9" d="M168.8,137.1c-0.1,0-0.1,0-0.2,0c-0.1,0-0.2,0-0.3,0c-0.1,0-0.2,0-0.2,0c-0.9,0-1.8,0.2-2.5,0.6
												c-6.6,3-5.7,11.7,2.8,26.1c3.9,6.7,8,11.9,12.3,15.6c2.1,1.8,4.1,3.1,6,3.9c1.3,0.5,2.5,0.8,3.7,0.9c0,0,0.1,0,0.1,0
												c0.1,0,0.2,0,0.3,0c0.1,0,0.2,0,0.2,0c0.3,0,0.6-0.1,0.9-0.1l-0.3-0.4c-1.3,0-2.7-0.4-4.1-1c-2.1-0.9-4.4-2.4-6.7-4.5
												c-3.9-3.5-7.7-8.5-11.3-14.7c-8.1-13.8-9.1-22-3.1-24.7c0.7-0.3,1.5-0.5,2.4-0.6c0.2,0,0.4,0,0.6,0c0.1,0,0.1,0,0.2,0
												c1.3,0,2.8,0.3,4.5,0.9l-0.3-0.6c-0.2-0.1-0.5-0.2-0.7-0.3C171.6,137.5,170.1,137.1,168.8,137.1"/>
										</g>
									</g>
								</g>
							</g>
						</g>
					</g>
				</g>
			</g>
		</g>
	</g>
</g>
<text transform="matrix(1 0 0 1 288 171)" class="st10 st11 st12">Zalt Communication Services</text>
<text transform="matrix(1 0 0 1 576 189)"><tspan x="0" y="0" class="st2 st11 st13">No.32B Reuben Aghor Street Benin City.</tspan><tspan x="0" y="21.6" class="st2 st11 st13">Tel:09064553311, 08132120048.</tspan><tspan x="0" y="43.2" class="st2 st11 st13">www.zaltservices.com</tspan></text>
</svg>
